<?xml version="1.0"?>
<svg xmlns="http://www.w3.org/2000/svg" xmlns:xlink="http://www.w3.org/1999/xlink" xmlns:svgjs="http://svgjs.com/svgjs" version="1.1" width="512" height="512" x="0" y="0" viewBox="0 0 24 24" style="enable-background:new 0 0 512 512" xml:space="preserve" class=""><g><path xmlns="http://www.w3.org/2000/svg" d="m22 17.5c-2 0-6 2.531-8 2.531s-4.25-1.531-4.25-1.531 2.693.5 4.25.5 2-.531 2-1.25c0-1.75-2.973-2.022-4.476-2.251-1.935-1.077-2.651-1.859-7.524-1.734l-1 6.738c-.219-.121 6.944 3.497 10 3.497 3 0 11-4 11-5s-1-1.5-2-1.5z" fill="#cdd0d2" data-original="#607d8b" style="" class=""/><path xmlns="http://www.w3.org/2000/svg" d="m2.995 20.5s.001.001.005.003v-.001c-.003-.002-.005-.002-.005-.002zm12.091-1.625h-2.836c.616.072 1.243.125 1.75.125.449 0 .806-.044 1.086-.125zm8.909 0h-6.255c-1.411.594-2.797 1.156-3.739 1.156-1.355 0-2.824-.702-3.631-1.156h-7.129l-.241 1.627c.211.096 7.037 3.498 10 3.498 3 0 11-4 11-5 0-.042-.002-.084-.005-.125z" fill="#a3b1cc" data-original="#546d79" style="" class=""/><path xmlns="http://www.w3.org/2000/svg" d="m20.703 7.469c.019-.155.047-.308.047-.469s-.028-.314-.047-.469l.901-.682c.201-.152.257-.43.131-.649l-.809-1.4c-.126-.218-.395-.309-.627-.211l-1.037.437c-.253-.193-.522-.363-.819-.487l-.138-1.101c-.032-.25-.244-.438-.496-.438h-1.617c-.252 0-.465.188-.496.438l-.138 1.101c-.297.124-.567.295-.819.487l-1.037-.437c-.233-.098-.502-.008-.628.211l-.808 1.4c-.126.218-.07.496.131.649l.901.682c-.02.155-.048.308-.048.469s.028.314.047.469l-.901.682c-.201.152-.257.43-.131.649l.809 1.401c.126.218.395.309.627.211l1.037-.438c.253.193.522.363.819.487l.138 1.101c.032.25.244.438.496.438h1.617c.252 0 .465-.188.496-.438l.138-1.101c.297-.124.567-.295.819-.487l1.037.437c.232.098.501.008.627-.211l.809-1.4c.126-.218.07-.496-.131-.649z" fill="#4793ff" data-original="#4caf50" style="" class=""/><circle xmlns="http://www.w3.org/2000/svg" cx="17" cy="7" fill="#ffffff" r="2" data-original="#ffffff" style="" class=""/><path xmlns="http://www.w3.org/2000/svg" d="m17 2h-.809c-.252 0-.465.188-.496.438l-.138 1.101c-.297.124-.566.295-.819.487l-1.037-.437c-.063-.027-.129-.039-.194-.039-.174 0-.341.091-.433.25l-.809 1.4c-.126.218-.07.497.131.649l.9.682c-.019.155-.046.308-.046.469s.027.314.047.469l-.9.682c-.202.152-.257.431-.131.649l.809 1.4c.092.159.259.25.433.25.065 0 .131-.013.194-.039l1.037-.438c.253.192.522.363.819.487l.138 1.101c.031.251.243.439.495.439h.809v-3c-1.105 0-2-.896-2-2 0-1.105.896-2 2-2z" fill="#5ecbf1" data-original="#429846" style="" class=""/><path xmlns="http://www.w3.org/2000/svg" d="m17 5c-1.105 0-2 .896-2 2s.896 2 2 2z" fill="#ffffff" data-original="#dedede" style="" class=""/><path xmlns="http://www.w3.org/2000/svg" d="m.491 12.002c-.272.005-.491.227-.491.5v8.998c0 .276.224.5.5.5h2.122c.224 0 .42-.148.481-.363l2.213-7.798c.143-.504-.127-1.034-.619-1.213-.907-.33-2.297-.656-4.206-.624z" fill="#cdd0d2" data-original="#cfd8dc" style="" class=""/><path xmlns="http://www.w3.org/2000/svg" d="m4.419 17h-4.419v4.5c0 .276.224.5.5.5h2.122c.224 0 .42-.148.481-.363z" fill="#a3b1cc" data-original="#b4bcc0" style="" class=""/></g></svg>
