<?xml version="1.0"?>
<svg xmlns="http://www.w3.org/2000/svg" id="Line" width="512" height="512" viewBox="0 0 64 64"><path d="M62.707,37.293l-6-6A1,1,0,0,0,55,32v5H22a3,3,0,0,0-3,3V60a3,3,0,0,0,3,3H60a3,3,0,0,0,3-3V38A1,1,0,0,0,62.707,37.293ZM41,56H29a1,1,0,0,1,0-2H41a1,1,0,0,1,0,2Zm12-5H29a1,1,0,0,1,0-2H53a1,1,0,0,1,0,2Zm0-5H29a1,1,0,0,1,0-2H53a1,1,0,0,1,0,2Z" style="fill:#c4a2fc"/><path d="M47.67,19.308a21.979,21.979,0,0,0-43.34,0A4.993,4.993,0,0,0,1,24v4a4.99,4.99,0,0,0,3.459,4.732A19.055,19.055,0,0,0,23.467,51H26a1,1,0,0,0,0-2H23.467A17.054,17.054,0,0,1,6.473,33h1.88a18.976,18.976,0,0,0,35.294,0H46a5.006,5.006,0,0,0,5-5V24A4.993,4.993,0,0,0,47.67,19.308ZM26,3A20.07,20.07,0,0,1,45.581,19H43.647A18.976,18.976,0,0,0,8.353,19H6.419A20.07,20.07,0,0,1,26,3ZM40.822,17.7a16.988,16.988,0,0,1-9.792-5.748q.913-.727,1.783-1.518A17.1,17.1,0,0,1,40.822,17.7Zm-29.743.163a16.925,16.925,0,0,1,19.587-8.2A34.963,34.963,0,0,1,11.079,17.864ZM10.14,19.93q1.077-.062,2.144-.184A2.96,2.96,0,0,0,12,21v1H9.495A16.792,16.792,0,0,1,10.14,19.93ZM14,21a1,1,0,0,1,1-1h6a1,1,0,0,1,1,1v5a1,1,0,0,1-1,1H15a1,1,0,0,1-1-1Zm7-3H19.982a36.971,36.971,0,0,0,9.453-4.84A19.008,19.008,0,0,0,35.569,18H31a3,3,0,0,0-3,3v1H24V21A3,3,0,0,0,21,18Zm9,3a1,1,0,0,1,1-1h6a1,1,0,0,1,1,1v5a1,1,0,0,1-1,1H31a1,1,0,0,1-1-1Zm9.554-1.552a18.88,18.88,0,0,0,2.278.405A16.775,16.775,0,0,1,42.505,22H40V21A2.969,2.969,0,0,0,39.554,19.448ZM6,31a3,3,0,0,1-3-3V24a3,3,0,0,1,3-3H7.69a18.664,18.664,0,0,0-.4,1.824A1.035,1.035,0,0,0,7.252,23c0,.009,0,.016,0,.024A18.037,18.037,0,0,0,7.69,31ZM26,43A16.921,16.921,0,0,1,9.128,24H12v2a3,3,0,0,0,3,3h6a3,3,0,0,0,3-3V24h4v2a3,3,0,0,0,3,3h6a3,3,0,0,0,3-3V24h2.872A16.921,16.921,0,0,1,26,43ZM49,28a3,3,0,0,1-3,3H44.31a18.028,18.028,0,0,0,.433-7.974A.244.244,0,0,0,44.749,23a.959.959,0,0,0-.038-.186q-.157-.924-.4-1.814H46a3,3,0,0,1,3,3ZM35.192,33.778a1,1,0,0,1,0,1.414,13.013,13.013,0,0,1-18.384,0,1,1,0,0,1,1.414-1.414,11.012,11.012,0,0,0,15.556,0A1,1,0,0,1,35.192,33.778Z" style="fill:#151a6a"/></svg>
