<svg id="color" enable-background="new 0 0 24 24" height="512" viewBox="0 0 24 24" width="512" xmlns="http://www.w3.org/2000/svg"><path d="m9.5 17.5c0-4.242 3.322-7.714 7.5-7.975v-6.775c0-1.517-1.233-2.75-2.75-2.75h-11.5c-1.517 0-2.75 1.233-2.75 2.75v15.5c0 1.517 1.233 2.75 2.75 2.75h7.567c-.518-1.059-.817-2.244-.817-3.5z" fill="#eceff1"/><circle cx="8.5" cy="5" fill="#90a4ae" r="2"/><path d="m9.09 15h-4.09c-.553 0-1-.448-1-1s.447-1 1-1h4.09c.553 0 1 .448 1 1s-.447 1-1 1z" fill="#90a4ae"/><path d="m8.5 18h-3.5c-.553 0-1-.448-1-1s.447-1 1-1h3.5c.553 0 1 .448 1 1s-.447 1-1 1z" fill="#90a4ae"/><path d="m17.5 24c-3.584 0-6.5-2.916-6.5-6.5s2.916-6.5 6.5-6.5 6.5 2.916 6.5 6.5-2.916 6.5-6.5 6.5z" fill="#f44336"/><path d="m18.914 17.5 1.043-1.043c.391-.391.391-1.023 0-1.414s-1.023-.391-1.414 0l-1.043 1.043-1.043-1.043c-.391-.391-1.023-.391-1.414 0s-.391 1.023 0 1.414l1.043 1.043-1.043 1.043c-.391.391-.391 1.023 0 1.414s1.023.391 1.414 0l1.043-1.043 1.043 1.043c.391.391 1.023.391 1.414 0s.391-1.023 0-1.414z" fill="#fff"/><path d="m12.496 11.268c0-.006.004-.011.004-.018v-.5c0-1.517-1.233-2.75-2.75-2.75h-2.5c-1.517 0-2.75 1.233-2.75 2.75v.5c0 .414.336.75.75.75h6.456c.247-.261.51-.507.79-.732z" fill="#90a4ae"/><path d="m17.5 11c-3.584 0-6.5 2.916-6.5 6.5s2.916 6.5 6.5 6.5v-5.086l-1.043 1.043c-.195.195-.451.293-.707.293s-.512-.098-.707-.293c-.391-.391-.391-1.023 0-1.414l1.043-1.043-1.043-1.043c-.391-.391-.391-1.023 0-1.414.195-.195.451-.293.707-.293s.512.098.707.293l1.043 1.043z" fill="#d43a2f"/><path d="m15.75 14.75c-.256 0-.512.098-.707.293-.391.391-.391 1.023 0 1.414l1.043 1.043-1.043 1.043c-.391.391-.391 1.023 0 1.414.195.195.451.293.707.293s.512-.098.707-.293l1.043-1.043v-2.828l-1.043-1.043c-.195-.195-.451-.293-.707-.293z" fill="#dedede"/><path d="m8.5 0h-5.75c-1.517 0-2.75 1.233-2.75 2.75v15.5c0 1.517 1.233 2.75 2.75 2.75h5.75v-3h-3.5c-.552 0-1-.448-1-1s.448-1 1-1h3.5v-1h-3.5c-.552 0-1-.448-1-1s.448-1 1-1h3.5v-1h-3.25c-.414 0-.75-.336-.75-.75v-.5c0-1.517 1.233-2.75 2.75-2.75h1.25v-1c-1.103 0-2-.897-2-2s.897-2 2-2z" fill="#cdd0d2"/><g fill="#7d8f97"><path d="m8.5 3c-1.103 0-2 .897-2 2s.897 2 2 2z"/><path d="m8.5 8h-1.25c-1.517 0-2.75 1.233-2.75 2.75v.5c0 .414.336.75.75.75h3.25z"/><path d="m8.5 13h-3.5c-.552 0-1 .448-1 1s.448 1 1 1h3.5z"/><path d="m8.5 16h-3.5c-.552 0-1 .448-1 1s.448 1 1 1h3.5z"/></g></svg>