<svg id="Layer_1" enable-background="new 0 0 512 512" height="512" viewBox="0 0 512 512" width="512" xmlns="http://www.w3.org/2000/svg"><g><path d="m326.333 428.733v-243.066c0-8.284 6.716-15 15-15h68.267l102.4 153.6v85.333c0 18.908-15.368 34.133-34.133 34.133h-136.534c-8.284 0-15-6.715-15-15z" fill="#4793ff"/><path d="m34.133 443.733c-18.851 0-34.133-15.282-34.133-34.133v-86.333c0-8.284 6.716-15 15-15h311.333c8.284 0 15 6.716 15 15v120.467h-307.2z" fill="#f0e6e6"/><path d="m341.333 323.267c0-8.284-6.716-15-15-15h-155.666v135.467h170.667v-120.467z" fill="#d2cbd7"/><circle cx="392.533" cy="443.733" fill="#1e354b" r="51.2"/><path d="m409.6 170.667v138.6c0 8.284 6.716 15 15 15h87.4v-51.2c0-11.178-4.542-21.883-12.594-29.652-16.856-16.261-43.903-43.34-60.18-60.181-7.767-8.036-18.46-12.567-29.626-12.567z" fill="#5ecbf1"/><circle cx="119.467" cy="443.733" fill="#1e354b" r="51.2"/><path d="m341.333 51.2c0-18.85-15.283-34.133-34.133-34.133-65.399 0-207.667 0-273.067 0-18.85 0-34.133 15.283-34.133 34.133v273.067h341.333z" fill="#fff7f4"/><path d="m341.333 51.2c0-18.85-15.283-34.133-34.133-34.133-32.7 0-84.617 0-136.533 0v307.2h170.667v-273.067z" fill="#f0e6e6"/><g fill="#000f28"><path d="m119.467 392.533v102.4c28.254 0 51.2-22.946 51.2-51.2 0-28.262-22.947-51.2-51.2-51.2z"/><path d="m392.533 392.533v102.4c28.254 0 51.2-22.946 51.2-51.2 0-28.262-22.946-51.2-51.2-51.2z"/></g></g></svg>