<svg id="color" enable-background="new 0 0 24 24" height="512" viewBox="0 0 24 24" width="512" xmlns="http://www.w3.org/2000/svg"><path d="m20.166 13.463 2.796 2.796.009.009c1.664 1.664 1.173 3.935-.505 5.613l-1.183 1.183c-1.197 1.179-2.932 1.301-5.625.032s-3.157-.329-3.744-.916c-.214-.214-.23-.702.477-1.409 1.122-1.122 3.284-.487 3.284-.487l-5.36-5.36c-.387-.387-.383-1.015.008-1.406s1.019-.395 1.406-.008l2.796 2.796c-.205-.205-.302-.481-.282-.753.011-.234.106-.469.29-.653.391-.391 1.019-.395 1.406-.008l.466.466c-.205-.205-.302-.481-.282-.753.011-.234.106-.469.29-.653.391-.391 1.019-.395 1.406-.008l.932.932c-.205-.205-.302-.481-.282-.753.011-.234.106-.469.29-.653.393-.39 1.021-.394 1.407-.007z" fill="#ffcc80"/><path d="m18.471 14.124 2.148 2.148c-.132.132-.338.133-.469.003l-1.398-1.398c-.205-.205-.302-.481-.281-.753z" fill="#ffa726"/><path d="m16.124 14.606 2.615 2.615c-.132.132-.338.133-.469.003l-1.864-1.864c-.205-.206-.302-.482-.282-.754z" fill="#ffa726"/><path d="m14.244 15.555 2.615 2.615c-.132.132-.338.133-.469.003l-1.864-1.864c-.205-.207-.302-.483-.282-.754z" fill="#ffa726"/><path d="m11.331 19.711c.296-.296.624-.519.966-.683l-3.042-3.043c-.97-.97-.967-2.553.008-3.527.974-.974 2.556-.977 3.527-.009l1.072 1.073c.393-.261.845-.399 1.299-.414l.193-.216c.457-.457 1.048-.682 1.646-.711v-9.431c0-1.517-1.233-2.75-2.75-2.75h-11.5c-1.517 0-2.75 1.233-2.75 2.75v15.5c0 1.517 1.233 2.75 2.75 2.75h7.702c.168-.436.458-.868.879-1.289z" fill="#eceff1"/><g fill="#90a4ae"><path d="m8.5 3c-1.103 0-2 .897-2 2s.897 2 2 2 2-.897 2-2-.897-2-2-2z"/><path d="m7 15h-2c-.552 0-1-.448-1-1s.448-1 1-1h2c.552 0 1 .448 1 1s-.448 1-1 1z"/><path d="m8.02 18h-3.02c-.552 0-1-.448-1-1s.448-1 1-1h3.02c.552 0 1 .448 1 1s-.448 1-1 1z"/><path d="m12.036 11.942c.272-.113.464-.38.464-.692v-.5c0-1.517-1.233-2.75-2.75-2.75h-2.5c-1.517 0-2.75 1.233-2.75 2.75v.5c0 .414.336.75.75.75h4.667c.666-.333 1.443-.355 2.119-.058z"/></g><path d="m5 15c-.552 0-1-.448-1-1s.448-1 1-1h2c.552 0 1 .448 1 1s-.448 1-1 1zm3.5-15h-5.75c-1.517 0-2.75 1.233-2.75 2.75v15.5c0 1.517 1.233 2.75 2.75 2.75h5.75v-3.123c-.142.079-.306.123-.48.123h-3.02c-.552 0-1-.448-1-1s.448-1 1-1h3.02c.174 0 .338.044.48.123v-4.123h-3.25c-.414 0-.75-.336-.75-.75v-.5c0-1.517 1.233-2.75 2.75-2.75h1.25v-1c-1.103 0-2-.897-2-2s.897-2 2-2z" fill="#cdd0d2"/><path d="m8.5 3c-1.103 0-2 .897-2 2s.897 2 2 2z" fill="#7d8f97"/><path d="m7 13h-2c-.552 0-1 .448-1 1s.448 1 1 1h2c.552 0 1-.448 1-1s-.448-1-1-1z" fill="#7d8f97"/><path d="m8.02 16h-3.02c-.552 0-1 .448-1 1s.448 1 1 1h3.02c.174 0 .338-.044.48-.123v-1.755c-.142-.078-.306-.122-.48-.122z" fill="#7d8f97"/><path d="m8.5 8h-1.25c-1.517 0-2.75 1.233-2.75 2.75v.5c0 .414.336.75.75.75h3.25z" fill="#7d8f97"/><path d="m11.034 13.223c-.256 0-.514.099-.711.296-.392.391-.395 1.02-.008 1.406l5.36 5.359s-.609-.179-1.349-.179c-.654 0-1.409.14-1.935.666-.707.707-.691 1.194-.477 1.409.181.181.351.217.578.217.074 0 .153-.004.241-.008s.184-.007.291-.007c.526 0 1.311.09 2.635.714 1.304.616 2.383.904 3.285.904.961 0 1.722-.327 2.339-.935l.879-.88-7.436-7.436c-.068.042-.133.092-.192.151-.184.184-.279.419-.29.653l2.614 2.614c-.066.066-.152.1-.236.1s-.167-.032-.232-.097l-1.864-1.864c-.187-.187-.284-.435-.284-.683 0 .248.097.495.284.683l-2.796-2.797c-.192-.19-.444-.286-.696-.286z" fill="#deb26f"/><path d="m14.244 15.555c-.002.023-.003.047-.003.07 0 .248.097.495.284.683l1.864 1.864c.065.065.148.097.232.097.085 0 .17-.033.236-.1z" fill="#de9121"/></svg>