<svg id="Capa_1" enable-background="new 0 0 510.733 510.733" height="512" viewBox="0 0 510.733 510.733" width="512" xmlns="http://www.w3.org/2000/svg"><g id="XMLID_16_"><path id="XMLID_976_" d="m121.495 103.584c-6.551-22.35-27.392-37.959-50.681-37.959h-70.814v136.493l159.162 30z" fill="#a8d3d8"/><path id="XMLID_927_" d="m77.996 216.819 81.166 15.299-37.667-128.534c-5.868-20.022-23.208-34.625-43.499-37.451z" fill="#7da1b3"/><path id="XMLID_141_" d="m249.867 382.111h-30.959l-15-30h45.959z" fill="#575f64"/><path id="XMLID_123_" d="m177.593 202.118h-177.593v108.209l71.783 71.783h147.125v-138.676c0-22.782-18.534-41.316-41.315-41.316z" fill="#f53"/><path id="XMLID_802_" d="m177.593 202.118h-99.597v179.992h140.912v-74.996l-20-15 20-15v-33.681c0-22.781-18.534-41.315-41.315-41.315z" fill="#e62e2e"/><path id="XMLID_762_" d="m161.171 277.114h57.738v30h-57.738z" fill="#f53"/><path id="XMLID_822_" d="m0 309.114v115.993c43.007 0 67.996-14.989 67.996-57.997 0-43.006-24.989-57.996-67.996-57.996z" fill="#babac0"/><path id="XMLID_399_" d="m0 445.108v-30c26.465 0 47.996-21.531 47.996-47.997 0-26.465-21.531-47.996-47.996-47.996v-30c43.007 0 77.996 34.989 77.996 77.996s-34.989 77.997-77.996 77.997z" fill="#32393f"/><g fill="#a8d3d8"><path d="m315.864 169.618c7.846 0 15.363-6.899 15-15-.364-8.127-6.591-15-15-15-7.846 0-15.363 6.899-15 15 .364 8.127 6.591 15 15 15z"/><path d="m450.857 112.121c7.846 0 15.363-6.899 15-15-.364-8.127-6.591-15-15-15-7.846 0-15.363 6.899-15 15 .364 8.127 6.591 15 15 15z"/><path d="m443.358 427.106c7.846 0 15.363-6.899 15-15-.364-8.127-6.591-15-15-15-7.846 0-15.363 6.899-15 15 .364 8.127 6.591 15 15 15z"/></g><path id="XMLID_111_" d="m510.67 203.855c-1.336-27.899-23.348-50.33-51.2-52.176-10.613-.71-21.009 1.621-30.129 6.625-6.599-2.721-13.689-4.133-20.926-4.133-24.633 0-45.744 16.554-52.616 39.121-27.426 3.073-48.815 26.404-48.815 54.638 0 1.397.054 2.816.16 4.223 1.391 18.226-.019 35.348-4.187 50.892-6.412 23.913-13.051 50.997-13.117 51.269l-6.215 25.378 25.05-7.43c.164-.049 16.675-4.948 34.866-10.505 20.368-6.222 42.559-7.994 65.965-5.266 2.113.246 4.27.371 6.409.371 29.896 0 54.297-23.987 54.968-53.727 19.309-8.69 32.266-27.992 32.266-50.104 0-5.153-.737-10.304-2.164-15.252 6.797-9.857 10.266-21.779 9.685-33.924z" fill="#d6d6da"/></g></svg>