<?xml version="1.0"?>
<svg xmlns="http://www.w3.org/2000/svg" xmlns:xlink="http://www.w3.org/1999/xlink" xmlns:svgjs="http://svgjs.com/svgjs" version="1.1" width="512" height="512" x="0" y="0" viewBox="0 0 512 512" style="enable-background:new 0 0 512 512" xml:space="preserve" class=""><g><g xmlns="http://www.w3.org/2000/svg"><path d="m476.225 211c-5.728-28.096-16.86-54.976-32.681-78.911l24.58-24.58-63.633-63.633-24.58 24.58c-23.935-15.82-50.815-26.953-78.911-32.681v-35.775h-45-45v35.775c-28.096 5.728-54.976 16.86-78.911 32.681l-24.58-24.58-63.633 63.633 24.58 24.58c-15.82 23.935-26.953 50.815-32.681 78.911h-35.775v90h35.775c5.728 28.096 16.86 54.976 32.681 78.911l-24.58 24.58 63.633 63.633 24.58-24.58c23.936 15.82 50.815 26.953 78.911 32.681v35.775h45 45v-35.775c28.096-5.728 54.976-16.86 78.911-32.681l24.58 24.58 63.633-63.633-24.58-24.58c15.82-23.936 26.953-50.815 32.681-78.911h35.775v-90z" fill="#f0f7ff" data-original="#f0f7ff" style="" class=""/><path d="m301 476.225c28.096-5.728 54.976-16.86 78.911-32.681l24.58 24.58 63.633-63.633-24.58-24.58c15.82-23.936 26.953-50.815 32.681-78.911h35.775v-90h-35.775c-5.728-28.096-16.86-54.976-32.681-78.911l24.58-24.58-63.633-63.633-24.58 24.58c-23.935-15.82-50.815-26.953-78.911-32.681v-35.775h-45v512h45z" fill="#dfe7f4" data-original="#dfe7f4" style="" class=""/><circle cx="256" cy="256" fill="#5ecbf1" r="135" data-original="#ff80aa" style="" class=""/><path d="m391 256c0-74.443-60.557-135-135-135v270c74.443 0 135-60.557 135-135z" fill="#4793ff" data-original="#ff3377" style="" class=""/><path d="m307.211 226-21.211-21.211-30 30-30-30-21.211 21.211 30 30-30 30 21.211 21.211 30-30 30 30 21.211-21.211-30-30z" fill="#f0f7ff" data-original="#f0f7ff" style="" class=""/><path d="m307.211 286-30-30 30-30-21.211-21.211-30 30v42.422l30 30z" fill="#dfe7f4" data-original="#dfe7f4" style="" class=""/></g></g></svg>
