<svg id="Layer_1" enable-background="new 0 0 510 510" height="512" viewBox="0 0 510 510" width="512" xmlns="http://www.w3.org/2000/svg"><g id="XMLID_3260_"><path id="XMLID_3389_" d="m210 510c-10 0-170 0-180 0 0-14.385 0-495.615 0-510h180l15 255z" fill="#fff5f5"/><path id="XMLID_3386_" d="m210 0h180v510h-180z" fill="#e4e4ff"/><circle id="XMLID_3383_" cx="382.5" cy="412.5" fill="#73ca7a" r="97.5"/><g id="XMLID_3378_"><path id="XMLID_3382_" d="m371.894 454.926-42.427-42.426 21.213-21.213 21.214 21.213 42.426-42.426 21.213 21.213z" fill="#fff5f5"/></g><g id="XMLID_3373_"><path id="XMLID_3377_" d="m90 90h30v30h-30z" fill="#ff8659"/></g><g id="XMLID_3368_"><path id="XMLID_3372_" d="m210 120c-7.259 0-52.693 0-60 0 0-10.492 0-19.508 0-30h60l15 15z" fill="#afd1fd"/></g><g id="XMLID_3363_"><path id="XMLID_3367_" d="m90 150h30v30h-30z" fill="#b9e68b"/></g><g id="XMLID_3358_"><path id="XMLID_3362_" d="m210 180c-7.259 0-52.693 0-60 0 0-10.492 0-19.508 0-30h60l15 15z" fill="#afd1fd"/></g><g id="XMLID_3353_"><g><path id="XMLID_62_" d="m90 210h30v30h-30z" fill="#8e89fa"/></g></g><g id="XMLID_3348_"><path id="XMLID_3352_" d="m210 240c-7.259 0-52.693 0-60 0 0-10.492 0-19.508 0-30h60l15 15z" fill="#afd1fd"/></g><g id="XMLID_3343_"><path id="XMLID_3347_" d="m210 90h120v30h-120z" fill="#6dabfc"/></g><g id="XMLID_3338_"><path id="XMLID_3342_" d="m210 150h120v30h-120z" fill="#6dabfc"/></g><g id="XMLID_3311_"><path id="XMLID_3337_" d="m210 210h120v30h-120z" fill="#6dabfc"/></g><g id="XMLID_3278_"><path id="XMLID_3310_" d="m90 270h30v30h-30z" fill="#b9e68b"/></g><g id="XMLID_3267_"><path id="XMLID_3276_" d="m210 300c-7.259 0-52.693 0-60 0 0-10.492 0-19.508 0-30h60l15 15z" fill="#4d4d8c"/></g><g id="XMLID_3262_"><path id="XMLID_3265_" d="m210 270h30v30h-30z" fill="#283366"/></g></g></svg>