<svg id="Capa_1" enable-background="new 0 0 511.999 511.999" height="512" viewBox="0 0 511.999 511.999" width="512" xmlns="http://www.w3.org/2000/svg"><g><path d="m467 205.999c0-97.047-78.953-176-176-176h-35v.001l106.887 190.999h104.113z" fill="#b4d2d7"/><path d="m256 30v-.001h-35c-97.047 0-176 78.953-176 176v15h104.113z" fill="#e1ebf0"/><path d="m115.001 378.943h-50.001v-30h30z" fill="#4895ff"/><path d="m396.998 378.943h50.002v-30h-30z" fill="#5f69e3"/><path d="m393.16 281.001-10.527-30.002h-126.633l-20.002 50.003z" fill="#5f69e3"/><path d="m256 250.999h-126.634l-10.527 30.002 137.161 20.001z" fill="#4895ff"/><path d="m240.999 0h30v60.001h-30z" fill="#0b799d"/><path d="m417 511.999h-59.999v-80.001l59.999 20.001z" fill="#03232e"/><path d="m154.998 511.999h-59.998v-60l59.998-20.001z" fill="#07485e"/><path d="m275.13 30h-19.13l-20.001 100.331 20.001 90.668h106.887c-3.347-106.792-41.357-190.999-87.757-190.999z" fill="#e1ebf0"/><path d="m236.869 30c-46.401 0-84.411 84.206-87.757 190.999h106.888v-190.999z" fill="#fff5f5"/><path d="m256 281.001-20.002 87.944 181.002-20.002-23.84-67.942z" fill="#07485e"/><path d="m256 281.001h-137.161l-23.839 67.942 161 20.002z" fill="#0b799d"/><path d="m417 378.943v-30h-161l-20.002 50.002z" fill="#4895ff"/><path d="m256 348.943h-161v30l161 20.002z" fill="#96c8ef"/><path d="m256 378.943-24.089 37.442 24.089 35.614h161v-73.056z" fill="#5f69e3"/><path d="m256 378.943h-161v73.056h161v-51.528z" fill="#4895ff"/></g></svg>