<svg id="Capa_1" enable-background="new 0 0 512 512" height="512" viewBox="0 0 512 512" width="512" xmlns="http://www.w3.org/2000/svg"><g><path d="m512 191.793h-101.242l-21.001 30.002 61.121 20.001 61.122-20.001z" fill="#4895ff"/><path d="m512 221.795h-122.243l-38.097 54.423 99.218 20.001 61.122-20.001z" fill="#07485e"/><path d="m351.66 276.218-95.66 41.893-20.001 35.418 20.001 40.259h256v-117.57z" fill="#4895ff"/><path d="m160.34 276.218-29.539-27.211 10.465-27.212-10.516-30.002h-130.75v30.003l20.001 26.704-20.001 27.718v117.57h256v-75.676z" fill="#00dd80"/><g fill="#ffde55"><path d="m241 66.007h30v104.54h-30z"/><path d="m156.016 87.254h30v104.54h-30z" transform="matrix(.866 -.5 .5 .866 -46.85 104.2)"/><path d="m288.715 124.524h104.54v30h-104.54z" transform="matrix(.5 -.866 .866 .5 49.66 365.061)"/></g><path d="m0 221.795h58.739v54.423h-58.739z" fill="#0b799d"/><path d="m160.34 276.218-19.074-54.423h-52.527v54.423z" fill="#0b799d"/><circle cx="144.405" cy="393.788" fill="#07485e" r="52.204"/><path d="m144.405 371.584c-12.243 0-22.204 9.961-22.204 22.205 0 12.243 9.961 22.204 22.204 22.204s22.204-9.961 22.204-22.204c0-12.244-9.961-22.205-22.204-22.205z" fill="#e1ebf0"/><circle cx="367.595" cy="393.788" fill="#03232e" r="52.204"/><path d="m367.595 371.584c-12.243 0-22.204 9.961-22.204 22.205 0 12.243 9.961 22.204 22.204 22.204s22.204-9.961 22.204-22.204c0-12.244-9.961-22.205-22.204-22.205z" fill="#b4d2d7"/></g></svg>